<?xml version="1.0" encoding="iso-8859-1"?>
<!-- Uploaded to: SVG Repo, www.svgrepo.com, Generator: SVG Repo Mixer Tools -->
<!DOCTYPE svg PUBLIC "-//W3C//DTD SVG 1.1//EN" "http://www.w3.org/Graphics/SVG/1.1/DTD/svg11.dtd">
<svg height="800px" width="800px" version="1.1" id="Capa_1" xmlns="http://www.w3.org/2000/svg" xmlns:xlink="http://www.w3.org/1999/xlink" 
	 viewBox="0 0 297.503 297.503" xml:space="preserve">
<g id="XMLID_44_">
	<g>
		<path style="fill:#8E44AD;" d="M166.707,30.363c4.31,5.59,6.19,12.51,5.29,19.5s-4.47,13.22-10.05,17.53
			c-5.58,4.3-12.5,6.18-19.49,5.28c-7-0.9-13.22-4.46-17.53-10.04c-4.31-5.58-6.19-12.51-5.29-19.5s4.47-13.22,10.05-17.52
			c4.67-3.61,10.28-5.51,16.08-5.51c1.13,0,2.27,0.07,3.42,0.22C156.177,21.223,162.397,24.783,166.707,30.363z"/>
		<path style="fill:#2ECC71;" d="M139.487,92.293c2.06,4.66,2.92,9.92,2.23,15.33c-2.03,15.78-16.51,26.95-32.29,24.93
			c-7.65-0.98-14.45-4.88-19.16-10.98c-4.71-6.1-6.76-13.66-5.78-21.31c1.72-13.36,12.37-23.42,25.18-24.96
			C117.097,84.643,127.647,90.663,139.487,92.293z"/>
		<path style="fill:#D95459;" d="M206.497,82.213c5.28,6.84,7.59,15.33,6.48,23.91c-1.1,8.58-5.48,16.21-12.32,21.5
			c-6.84,5.28-15.33,7.59-23.91,6.48c-7.47-0.96-14.29-4.48-19.38-9.88c1.99-4.35,3.39-9.07,4.03-14.07
			c0.87-6.78,0.28-13.41-1.5-19.6c5.06-1.62,9.85-4.11,14.18-7.46c4.74-3.65,8.64-8.1,11.59-13.1
			C193.967,71.233,201.347,75.543,206.497,82.213z"/>
		<path style="fill:#D5C295;" d="M182.647,154.193l-33.92,101.76l-34.45-103.34c11.77-0.28,22.73-4.82,31.16-12.3
			c7.89,7.31,17.9,12.08,28.78,13.47c2.26,0.3,4.52,0.44,6.76,0.44C181.537,154.223,182.087,154.203,182.647,154.193z"/>
		<path d="M222.207,70.083c8.52,11.04,12.24,24.74,10.46,38.57c-1.78,13.84-8.84,26.15-19.88,34.67c-2.28,1.76-4.67,3.32-7.15,4.66
			l-47.5,142.48c-1.35,4.06-5.14,6.79-9.41,6.79c-4.27,0-8.07-2.73-9.42-6.79l-47.59-142.76c-6.64-3.24-12.51-7.98-17.16-14
			c-7.94-10.29-11.41-23.07-9.75-35.97c1.66-12.9,8.24-24.38,18.54-32.33c5.25-4.06,11.15-6.93,17.39-8.56
			c-1.21-5.26-1.49-10.74-0.78-16.24c1.57-12.25,7.82-23.15,17.6-30.7s21.91-10.84,34.16-9.27c12.25,1.58,23.15,7.83,30.7,17.61
			c7.25,9.39,10.56,20.95,9.41,32.71C203.907,53.523,214.577,60.203,222.207,70.083z M212.977,106.123
			c1.11-8.58-1.2-17.07-6.48-23.91c-5.15-6.67-12.53-10.98-20.83-12.22c-2.95,5-6.85,9.45-11.59,13.1
			c-4.33,3.35-9.12,5.84-14.18,7.46c1.78,6.19,2.37,12.82,1.5,19.6c-0.64,5-2.04,9.72-4.03,14.07c5.09,5.4,11.91,8.92,19.38,9.88
			c8.58,1.11,17.07-1.2,23.91-6.48C207.497,122.333,211.877,114.703,212.977,106.123z M148.727,255.953l33.92-101.76
			c-0.56,0.01-1.11,0.03-1.67,0.03c-2.24,0-4.5-0.14-6.76-0.44c-10.88-1.39-20.89-6.16-28.78-13.47
			c-8.43,7.48-19.39,12.02-31.16,12.3L148.727,255.953z M171.997,49.863c0.9-6.99-0.98-13.91-5.29-19.5
			c-4.31-5.58-10.53-9.14-17.52-10.04c-1.15-0.15-2.29-0.22-3.42-0.22c-5.8,0-11.41,1.9-16.08,5.51
			c-5.58,4.3-9.15,10.53-10.05,17.52s0.98,13.92,5.29,19.5c4.31,5.58,10.53,9.14,17.53,10.04c6.99,0.9,13.91-0.98,19.49-5.28
			C167.527,63.083,171.097,56.853,171.997,49.863z M141.717,107.623c0.69-5.41-0.17-10.67-2.23-15.33
			c-11.84-1.63-22.39-7.65-29.82-16.99c-12.81,1.54-23.46,11.6-25.18,24.96c-0.98,7.65,1.07,15.21,5.78,21.31
			c4.71,6.1,11.51,10,19.16,10.98C125.207,134.573,139.687,123.403,141.717,107.623z"/>
	</g>
	<g>
	</g>
</g>
</svg>